<svg width="100%" height="100%" viewBox="0 0 2971 1156" version="1.1" xmlns="http://www.w3.org/2000/svg" xmlns:xlink="http://www.w3.org/1999/xlink" xml:space="preserve" xmlns:serif="http://www.serif.com/" style="fill-rule:evenodd;clip-rule:evenodd;stroke-linejoin:round;stroke-miterlimit:2;"><g><path d="M3.735,637.083l0,-16.25l78.75,0l138.04,-592.5l-70.957,0l0,-16.25l248.333,0c69.635,0 120.098,9.931 151.387,29.792c31.293,19.861 46.94,51.875 46.94,96.042c0,23.138 -5.66,44.653 -16.979,64.544c-11.319,19.887 -26.806,37.609 -46.458,53.164c-19.648,15.556 -42.342,28.403 -68.079,38.542c-25.738,10.139 -53.023,17.125 -81.855,20.957c33.277,2.222 62.491,8.194 87.643,17.917c25.156,9.722 44.761,23.529 58.815,41.419c14.054,17.886 21.081,40.469 21.081,67.747c0,31.111 -7.361,58.778 -22.083,83.001c-14.722,24.223 -34.855,44.661 -60.397,61.315c-25.538,16.649 -54.724,29.238 -87.559,37.767c-32.834,8.529 -67.32,12.793 -103.457,12.793l-273.164,0Zm187.91,-16.25l85.254,0c22.114,0 42.398,-5.117 60.853,-15.352c18.459,-10.239 34.488,-24.475 48.086,-42.708c13.598,-18.238 24.147,-39.475 31.647,-63.711c7.5,-24.236 11.25,-50.451 11.25,-78.646c0,-24.722 -3.757,-44.028 -11.27,-57.917c-7.513,-13.889 -18.207,-23.681 -32.083,-29.375c-13.876,-5.694 -30.536,-8.542 -49.98,-8.542l-91.048,0l3.75,-16.667l87.174,0c15.833,0 32.352,-4.208 49.557,-12.624c17.209,-8.416 33.257,-20.714 48.145,-36.895c14.891,-16.181 26.984,-35.896 36.276,-59.147c9.293,-23.251 13.939,-49.807 13.939,-79.668c0,-18.529 -2.945,-34.59 -8.835,-48.184c-5.89,-13.598 -15.176,-24.175 -27.858,-31.732c-12.678,-7.556 -29.295,-11.335 -49.85,-11.335l-66.797,0l-138.21,592.5Z" style="fill-rule:nonzero;"/><path d="M646.899,637.083l367.5,-637.083l41.413,0l79.043,637.083l-117.37,0l-53.001,-519.837l-298.835,519.837l-18.75,0Zm-61.914,0l0,-16.25l183.333,0l0,16.25l-183.333,0Zm336.667,0l0,-16.25l271.953,0l0,16.25l-271.953,0Zm-146.003,-195.833l0,-16.25l275.71,0l0,16.25l-275.71,0Z" style="fill-rule:nonzero;"/><path d="M1688.064,645.417l-259.329,-633.333l130.827,0l178.711,443.672l101.296,-443.672l17.083,0l-144.167,633.333l-24.421,0Zm-483.079,-8.333l0,-16.25l192.207,0l0,16.25l-192.207,0Zm78.75,0l137.207,-608.75l-82.624,0l0,-16.25l102.793,0l-140.169,625l-17.207,0Zm455.833,-608.75l0,-16.25l198.75,0l0,16.25l-198.75,0Z" style="fill-rule:nonzero;"/><path d="M1944.151,456.25l450.41,-443.086l23.581,0l-449.909,443.086l-24.082,0Zm-145.833,180.833l0,-16.25l252.493,0l0,16.25l-252.493,0Zm303.333,0l0,-16.25l282.324,0l0,16.25l-282.324,0Zm-232.5,0l141.667,-625l109.16,0l-141.953,625l-108.874,0Zm323.75,0l-105.085,-317.461l87.624,-80.202l140.911,397.663l-123.451,0Zm-257.083,-608.75l0,-16.25l257.493,0l0,16.25l-257.493,0Zm350.827,0l0,-16.25l200,0l0,16.25l-200,0Z" style="fill-rule:nonzero;"/><path d="M2657.608,649.167c-32.5,0 -60.139,-5.124 -82.917,-15.371c-22.778,-10.252 -41.48,-24.273 -56.107,-42.064c-14.622,-17.791 -25.822,-38.06 -33.6,-60.807c-7.778,-22.752 -12.917,-46.628 -15.417,-71.628l16.25,0c2.14,22.274 6.521,43.752 13.145,64.434c6.623,20.681 16.33,39.128 29.121,55.339c12.795,16.207 29.288,29.06 49.479,38.561c20.195,9.497 44.933,14.245 74.212,14.245c28.611,0 54.36,-5.243 77.246,-15.729c22.891,-10.486 40.996,-25.221 54.316,-44.206c13.32,-18.989 19.98,-41.191 19.98,-66.608c0,-23.915 -4.625,-43.859 -13.874,-59.831c-9.249,-15.972 -21.528,-29.451 -36.836,-40.436c-15.304,-10.99 -32.068,-20.853 -50.293,-29.59c-18.22,-8.737 -36.443,-17.758 -54.668,-27.064c-18.22,-9.306 -34.985,-20.187 -50.293,-32.643c-15.304,-12.457 -27.58,-27.858 -36.829,-46.204c-9.249,-18.351 -13.874,-41.122 -13.874,-68.314c0,-32.639 6.686,-61.228 20.059,-85.768c13.377,-24.544 30.684,-45.122 51.921,-61.732c21.237,-16.61 44.034,-29.095 68.392,-37.454c24.362,-8.364 47.53,-12.546 69.505,-12.546c35.556,0 65.755,7.5 90.599,22.5c24.848,15 44.23,36.111 58.145,63.333c13.919,27.222 22.129,59.028 24.629,95.417l-16.25,0c-2.582,-33.138 -9.82,-61.957 -21.712,-86.458c-11.888,-24.501 -28.574,-43.444 -50.059,-56.829c-21.484,-13.39 -48.088,-20.085 -79.811,-20.085c-20.668,0 -40.809,4.444 -60.423,13.333c-19.609,8.889 -35.727,21.306 -48.353,37.253c-12.622,15.942 -18.932,34.746 -18.932,56.413c0,20.751 4.694,38.023 14.082,51.816c9.388,13.789 21.756,25.579 37.103,35.371c15.347,9.792 32.292,18.958 50.833,27.5c18.542,8.542 37.033,17.819 55.475,27.832c18.446,10.013 35.343,22.146 50.69,36.4c15.347,14.249 27.715,31.923 37.103,53.021c9.392,21.094 14.089,47.211 14.089,78.353c0,29.167 -6.139,56.465 -18.418,81.895c-12.279,25.43 -29.251,47.756 -50.918,66.979c-21.667,19.223 -46.771,34.258 -75.312,45.104c-28.542,10.846 -59.034,16.27 -91.478,16.27Zm-230.54,-3.75l42.5,-186.12l16.25,0l4.499,51.12c4.444,14.28 9.091,27.378 13.939,39.297c4.848,11.914 10.341,23.149 16.478,33.704l-79.499,61.999l-14.167,0Zm486.582,-460.417l0.378,-41.003c-4.002,-14.722 -8.474,-28.596 -13.418,-41.621c-4.944,-13.03 -11.875,-26.975 -20.794,-41.836l76.419,-56.79l14.167,0l-40.501,181.25l-16.25,0Z" style="fill-rule:nonzero;"/></g><g><path d="M66.875,1051.075c-21.931,0 -38.56,-5.972 -49.886,-17.917c-11.326,-11.944 -16.989,-27.917 -16.989,-47.917c0,-17.737 3.209,-34.66 9.626,-50.771c6.417,-16.111 15.167,-30.417 26.25,-42.917c11.083,-12.5 23.784,-22.371 38.102,-29.613c14.321,-7.244 29.384,-10.866 45.189,-10.866c22.027,0 38.783,6.111 50.267,18.333c11.487,12.222 17.23,28.333 17.23,48.333c0,17.569 -3.156,34.358 -9.469,50.365c-6.311,16.007 -14.987,30.251 -26.029,42.731c-11.042,12.478 -23.785,22.305 -38.229,29.479c-14.444,7.172 -29.798,10.758 -46.061,10.758Zm-1.458,-8.125c6.471,0 12.873,-2.462 19.206,-7.386c6.335,-4.924 12.433,-11.629 18.294,-20.114c5.862,-8.485 11.292,-18.107 16.292,-28.864c5,-10.757 9.367,-22 13.102,-33.727c3.737,-11.73 6.647,-23.32 8.73,-34.772c2.083,-11.452 3.125,-22.004 3.125,-31.657c0,-8.403 -1.875,-15.017 -5.625,-19.844c-3.75,-4.826 -9.722,-7.24 -17.917,-7.24c-6.376,0 -12.755,2.462 -19.137,7.386c-6.382,4.922 -12.504,11.627 -18.366,20.114c-5.859,8.485 -11.289,18.107 -16.289,28.864c-5,10.757 -9.368,22.001 -13.105,33.73c-3.737,11.727 -6.647,23.282 -8.73,34.665c-2.083,11.382 -3.125,21.969 -3.125,31.761c0,8.264 1.91,14.844 5.729,19.74c3.822,4.896 9.76,7.344 17.816,7.344Z" style="fill-rule:nonzero;"/><path d="M147.373,1155.241c-11.207,0 -20.734,-1.948 -28.581,-5.843c-7.847,-3.895 -13.812,-8.895 -17.894,-15c-4.084,-6.105 -6.126,-12.483 -6.126,-19.134c0,-9.084 2.784,-16.23 8.353,-21.439c5.569,-5.208 12.089,-7.812 19.561,-7.812c7.834,0 14.446,2.388 19.834,7.165c5.388,4.779 8.083,11.349 8.083,19.71c0,5.543 -1.413,10.355 -4.238,14.437c-2.828,4.084 -6.398,7.247 -10.71,9.489c-4.312,2.244 -8.717,3.366 -13.216,3.366c-4.514,0 -8.861,-1.157 -13.04,-3.47c-4.182,-2.311 -7.595,-5.367 -10.241,-9.167c-2.645,-3.798 -3.968,-7.891 -3.968,-12.279l8.063,0c0,4.596 1.6,9.349 4.801,14.258c3.201,4.911 7.871,9.057 14.01,12.438c6.137,3.381 13.644,5.072 22.52,5.072c8.277,0 15.218,-2.355 20.824,-7.064c5.603,-4.707 10.324,-11.325 14.163,-19.854c3.841,-8.526 7.286,-18.53 10.335,-30.01c3.049,-11.478 6.157,-23.988 9.323,-37.529l50.312,-218.792c3.292,-14.375 7.684,-27.813 13.177,-40.313c5.493,-12.5 12.183,-23.472 20.072,-32.917c7.891,-9.444 17.096,-16.858 27.617,-22.24c10.521,-5.382 22.475,-8.073 35.863,-8.073c11.348,0 20.896,1.948 28.646,5.843c7.75,3.895 13.656,8.886 17.718,14.971c4.062,6.083 6.094,12.471 6.094,19.163c0,8.724 -2.646,15.78 -7.939,21.169c-5.291,5.388 -11.901,8.083 -19.831,8.083c-7.402,0 -13.93,-2.378 -19.583,-7.135c-5.653,-4.757 -8.48,-11.337 -8.48,-19.74c0,-5.43 1.354,-10.176 4.062,-14.238c2.708,-4.062 6.239,-7.254 10.592,-9.574c4.355,-2.32 8.97,-3.48 13.844,-3.48c3.014,0 6.081,0.642 9.199,1.927c3.118,1.285 6.035,3.09 8.75,5.417c2.715,2.326 4.888,4.99 6.52,7.992c1.632,2.999 2.448,6.192 2.448,9.58l-7.917,0c0,-4.735 -1.577,-9.546 -4.73,-14.434c-3.153,-4.889 -7.74,-9.001 -13.76,-12.334c-6.02,-3.333 -13.44,-5 -22.259,-5c-8.084,0 -14.872,2.378 -20.365,7.135c-5.493,4.755 -10.139,11.42 -13.939,19.997c-3.798,8.576 -7.215,18.628 -10.251,30.156c-3.034,11.528 -6.134,24.062 -9.3,37.604l-51.188,218.356c-3.349,14.236 -7.755,27.614 -13.219,40.133c-5.464,12.522 -12.125,23.529 -19.98,33.021c-7.854,9.494 -17.082,16.933 -27.686,22.314c-10.603,5.382 -22.718,8.073 -36.344,8.073Zm56.794,-291.875l0,-8.125l141.976,0l0,8.125l-141.976,0Z" style="fill-rule:nonzero;"/><path d="M493.561,1051.075c-9.861,0 -17.771,-1.427 -23.73,-4.281c-5.957,-2.854 -10.283,-6.561 -12.979,-11.123c-2.693,-4.564 -4.04,-9.311 -4.04,-14.242c0,-2.847 0.461,-6.43 1.383,-10.749c0.924,-4.321 1.922,-8.564 2.992,-12.731l49.398,-184.375l45.83,0l-56.563,207.5c-0.417,1.43 -0.833,3.073 -1.25,4.928c-0.417,1.853 -0.625,3.752 -0.625,5.697c0,4.889 3.513,7.334 10.54,7.334c4.586,0 9.326,-1.19 14.222,-3.571c4.896,-2.383 9.767,-6.074 14.613,-11.074c4.848,-5 9.689,-11.462 14.521,-19.385c4.833,-7.925 9.52,-17.429 14.062,-28.512l7.979,2.5c-6.389,15.694 -13.229,28.903 -20.521,39.626c-7.292,10.723 -15.48,18.813 -24.564,24.271c-9.082,5.458 -19.505,8.187 -31.27,8.187Zm-39.476,-187.5l0,-8.333l124.997,0l0,8.333l-124.997,0Z" style="fill-rule:nonzero;"/><path d="M583.125,1046.908l81.458,-304.375l-31.875,0l0,-8.125l80.625,0l-83.333,312.5l-46.875,0Zm155.791,4.167c-11.181,0 -19.903,-2.674 -26.169,-8.021c-6.263,-5.347 -9.395,-12.437 -9.395,-21.27c0,-2.515 0.344,-5.414 1.032,-8.698c0.688,-3.286 1.518,-6.664 2.49,-10.137l24.749,-85.625c3.251,-11.319 5.424,-20.691 6.52,-28.115c1.098,-7.424 0.786,-12.994 -0.938,-16.709c-1.721,-3.715 -5.29,-5.573 -10.706,-5.573c-5.46,0 -11.929,3.324 -19.408,9.971c-7.478,6.645 -15.163,15.739 -23.053,27.282c-7.888,11.541 -15.305,24.794 -22.249,39.759c-6.944,14.965 -12.68,30.816 -17.207,47.552l-4.857,0c3.043,-11.957 7.061,-24.436 12.054,-37.435c4.993,-13.001 10.827,-25.592 17.5,-37.773c6.673,-12.181 13.923,-23.16 21.748,-32.936c7.828,-9.779 16.123,-17.567 24.886,-23.366c8.765,-5.799 17.766,-8.698 27.002,-8.698c11.875,0 21.02,2.798 27.435,8.395c6.417,5.597 10.344,13.108 11.781,22.533c1.439,9.423 0.45,19.947 -2.965,31.572l-31.188,108.688c-0.278,0.972 -0.543,2.181 -0.794,3.626c-0.25,1.443 -0.374,2.72 -0.374,3.831c0,5.139 2.313,7.708 6.94,7.708c8.097,0 16.003,-4.583 23.717,-13.75c7.715,-9.167 15.718,-23.875 24.01,-44.124l7.917,2.708c-6.471,16.43 -13.124,29.688 -19.958,39.772c-6.834,10.082 -14.321,17.409 -22.461,21.979c-8.138,4.568 -17.491,6.852 -28.06,6.852Z" style="fill-rule:nonzero;"/><path d="M886.624,1051.075c-14.375,0 -26.417,-2.896 -36.126,-8.688c-9.707,-5.792 -17.026,-13.709 -21.956,-23.75c-4.931,-10.041 -7.396,-21.451 -7.396,-34.229c0,-16.638 3.083,-32.892 9.248,-48.76c6.168,-15.868 14.769,-30.166 25.804,-42.894c11.035,-12.73 23.91,-22.859 38.623,-30.387c14.716,-7.528 30.574,-11.292 47.575,-11.292c17.832,0 31.682,4.07 41.549,12.21c9.868,8.138 14.801,18.151 14.801,30.039c0,10.638 -3.452,20.239 -10.355,28.802c-6.901,8.563 -16.47,15.918 -28.708,22.064c-12.235,6.146 -26.353,11.07 -42.354,14.772c-16,3.7 -33.167,6.106 -51.501,7.217l0,-6.709c10.599,-0.707 20.627,-2.738 30.085,-6.09c9.46,-3.355 18.026,-7.686 25.7,-12.992c7.674,-5.306 14.301,-11.316 19.883,-18.031c5.584,-6.714 9.883,-13.815 12.897,-21.302c3.014,-7.487 4.521,-15.05 4.521,-22.689c0,-5.152 -1.149,-9.631 -3.447,-13.438c-2.298,-3.806 -6.233,-5.71 -11.803,-5.71c-6.875,0 -13.576,2.452 -20.104,7.357c-6.528,4.902 -12.726,11.531 -18.594,19.886c-5.868,8.353 -11.25,17.734 -16.146,28.145c-4.896,10.408 -9.136,21.234 -12.721,32.477c-3.583,11.243 -6.353,22.22 -8.311,32.93c-1.957,10.707 -2.936,20.422 -2.936,29.144c0,11.638 2.739,19.754 8.216,24.346c5.48,4.59 12.457,6.885 20.931,6.885c10.111,0 19.846,-2.18 29.206,-6.54c9.362,-4.362 18.136,-10.443 26.322,-18.242c8.188,-7.799 15.505,-16.824 21.95,-27.074l7.23,4.564c-6.042,10.098 -13.434,19.553 -22.178,28.366c-8.743,8.811 -18.9,15.949 -30.469,21.416c-11.569,5.464 -24.715,8.197 -39.437,8.197Z" style="fill-rule:nonzero;"/><path d="M1078.438,1046.908l0,-8.125l39.375,0l69.02,-296.25l-35.479,0l0,-8.125l124.167,0c34.818,0 60.049,4.965 75.693,14.896c15.647,9.931 23.47,25.938 23.47,48.021c0,11.569 -2.83,22.326 -8.49,32.272c-5.66,9.944 -13.403,18.804 -23.229,26.582c-9.824,7.778 -21.171,14.201 -34.04,19.271c-12.869,5.069 -26.512,8.562 -40.928,10.479c16.638,1.111 31.246,4.097 43.822,8.958c12.578,4.861 22.381,11.764 29.408,20.71c7.027,8.943 10.54,20.234 10.54,33.874c0,15.556 -3.681,29.389 -11.042,41.501c-7.361,12.112 -17.427,22.331 -30.199,30.658c-12.769,8.325 -27.362,14.619 -43.779,18.883c-16.417,4.264 -33.66,6.396 -51.729,6.396l-136.582,0Zm93.955,-8.125l42.627,0c11.057,0 21.199,-2.559 30.426,-7.676c9.23,-5.119 17.244,-12.237 24.043,-21.354c6.799,-9.119 12.074,-19.737 15.824,-31.855c3.75,-12.118 5.625,-25.226 5.625,-39.323c0,-12.361 -1.878,-22.014 -5.635,-28.958c-3.757,-6.944 -9.104,-11.84 -16.042,-14.688c-6.938,-2.847 -15.268,-4.271 -24.99,-4.271l-45.524,0l1.875,-8.333l43.587,0c7.917,0 16.176,-2.104 24.779,-6.312c8.605,-4.208 16.629,-10.357 24.072,-18.447c7.446,-8.09 13.492,-17.948 18.138,-29.574c4.646,-11.625 6.969,-24.903 6.969,-39.834c0,-9.264 -1.472,-17.295 -4.417,-24.092c-2.945,-6.799 -7.588,-12.088 -13.929,-15.866c-6.339,-3.778 -14.647,-5.667 -24.925,-5.667l-33.398,0l-69.105,296.25Z" style="fill-rule:nonzero;"/><path d="M1452.708,1051.075c-21.931,0 -38.56,-5.972 -49.886,-17.917c-11.326,-11.944 -16.989,-27.917 -16.989,-47.917c0,-17.737 3.209,-34.66 9.626,-50.771c6.417,-16.111 15.167,-30.417 26.25,-42.917c11.083,-12.5 23.784,-22.371 38.102,-29.613c14.321,-7.244 29.384,-10.866 45.189,-10.866c22.027,0 38.783,6.111 50.267,18.333c11.487,12.222 17.23,28.333 17.23,48.333c0,17.569 -3.156,34.358 -9.469,50.365c-6.311,16.007 -14.987,30.251 -26.029,42.731c-11.042,12.478 -23.785,22.305 -38.229,29.479c-14.444,7.172 -29.798,10.758 -46.061,10.758Zm-1.458,-8.125c6.471,0 12.873,-2.462 19.206,-7.386c6.335,-4.924 12.433,-11.629 18.294,-20.114c5.862,-8.485 11.292,-18.107 16.292,-28.864c5,-10.757 9.367,-22 13.102,-33.727c3.737,-11.73 6.647,-23.32 8.73,-34.772c2.083,-11.452 3.125,-22.004 3.125,-31.657c0,-8.403 -1.875,-15.017 -5.625,-19.844c-3.75,-4.826 -9.722,-7.24 -17.917,-7.24c-6.376,0 -12.755,2.462 -19.137,7.386c-6.382,4.922 -12.504,11.627 -18.366,20.114c-5.859,8.485 -11.289,18.107 -16.289,28.864c-5,10.757 -9.368,22.001 -13.105,33.73c-3.737,11.727 -6.647,23.282 -8.73,34.665c-2.083,11.382 -3.125,21.969 -3.125,31.761c0,8.264 1.91,14.844 5.729,19.74c3.822,4.896 9.76,7.344 17.816,7.344Z" style="fill-rule:nonzero;"/><path d="M1724.541,1051.075c-11.957,0 -20.875,-2.552 -26.751,-7.656c-5.875,-5.104 -8.812,-12.413 -8.812,-21.927c0,-2.901 0.344,-6.019 1.032,-9.352c0.688,-3.333 1.373,-6.153 2.054,-8.46l26.501,-86.354c3.346,-10.736 5.544,-19.863 6.592,-27.383c1.048,-7.522 0.638,-13.238 -1.23,-17.148c-1.866,-3.911 -5.557,-5.866 -11.071,-5.866c-5.362,0 -11.759,3.372 -19.189,10.117c-7.431,6.743 -15.066,15.958 -22.907,27.646c-7.841,11.686 -15.209,24.988 -22.106,39.906c-6.895,14.915 -12.556,30.547 -16.986,46.895l-5.648,0c3.14,-11.862 7.241,-24.269 12.301,-37.22c5.063,-12.951 10.92,-25.516 17.572,-37.695c6.654,-12.181 13.893,-23.209 21.719,-33.083c7.828,-9.876 16.085,-17.714 24.772,-23.512c8.689,-5.799 17.603,-8.698 26.742,-8.698c11.875,0 21.118,2.798 27.728,8.395c6.612,5.597 10.71,13.132 12.292,22.604c1.584,9.473 0.62,19.973 -2.894,31.501l-32.5,108.688c-0.375,1.168 -0.689,2.474 -0.941,3.919c-0.25,1.443 -0.374,2.72 -0.374,3.831c0,2.263 0.518,4.066 1.553,5.407c1.035,1.339 2.782,2.008 5.241,2.008c8.388,0 16.39,-4.583 24.007,-13.75c7.619,-9.167 15.624,-23.875 24.014,-44.124l7.77,2.708c-6.471,16.43 -13.124,29.688 -19.958,39.772c-6.834,10.082 -14.321,17.409 -22.461,21.979c-8.138,4.568 -17.491,6.852 -28.06,6.852Zm-153.936,-4.167l48.438,-183.542l-27.708,0l0,-8.125l76.455,0l-50.687,191.667l-46.497,0Z" style="fill-rule:nonzero;"/><path d="M1875.791,1051.075c-14.375,0 -26.417,-2.896 -36.126,-8.688c-9.707,-5.792 -17.026,-13.709 -21.956,-23.75c-4.931,-10.041 -7.396,-21.451 -7.396,-34.229c0,-16.638 3.083,-32.892 9.248,-48.76c6.168,-15.868 14.769,-30.166 25.804,-42.894c11.035,-12.73 23.91,-22.859 38.623,-30.387c14.716,-7.528 30.574,-11.292 47.575,-11.292c17.832,0 31.682,4.07 41.549,12.21c9.868,8.138 14.801,18.151 14.801,30.039c0,10.638 -3.452,20.239 -10.355,28.802c-6.901,8.563 -16.47,15.918 -28.708,22.064c-12.235,6.146 -26.353,11.07 -42.354,14.772c-16,3.7 -33.167,6.106 -51.501,7.217l0,-6.709c10.599,-0.707 20.627,-2.738 30.085,-6.09c9.46,-3.355 18.026,-7.686 25.7,-12.992c7.674,-5.306 14.301,-11.316 19.883,-18.031c5.584,-6.714 9.883,-13.815 12.897,-21.302c3.014,-7.487 4.521,-15.05 4.521,-22.689c0,-5.152 -1.149,-9.631 -3.447,-13.438c-2.298,-3.806 -6.233,-5.71 -11.803,-5.71c-6.875,0 -13.576,2.452 -20.104,7.357c-6.528,4.902 -12.726,11.531 -18.594,19.886c-5.868,8.353 -11.25,17.734 -16.146,28.145c-4.896,10.408 -9.136,21.234 -12.721,32.477c-3.583,11.243 -6.353,22.22 -8.311,32.93c-1.957,10.707 -2.936,20.422 -2.936,29.144c0,11.638 2.739,19.754 8.216,24.346c5.48,4.59 12.457,6.885 20.931,6.885c10.111,0 19.846,-2.18 29.206,-6.54c9.362,-4.362 18.136,-10.443 26.322,-18.242c8.188,-7.799 15.505,-16.824 21.95,-27.074l7.23,4.564c-6.042,10.098 -13.434,19.553 -22.178,28.366c-8.743,8.811 -18.9,15.949 -30.469,21.416c-11.569,5.464 -24.715,8.197 -39.437,8.197Z" style="fill-rule:nonzero;"/><path d="M2013.311,1155.241c-10.139,0 -18.934,-2.056 -26.387,-6.169c-7.45,-4.11 -13.213,-9.776 -17.288,-16.999c-4.078,-7.222 -6.117,-15.556 -6.117,-25c0,-5.625 1.281,-10.92 3.844,-15.885c2.563,-4.965 6.139,-8.976 10.729,-12.031c4.59,-3.053 9.94,-4.58 16.051,-4.58c4.306,0 8.649,0.982 13.031,2.946c4.382,1.966 8.027,4.956 10.938,8.968c2.91,4.015 4.365,9.14 4.365,15.374c0,8.39 -2.699,15.14 -8.096,20.251c-5.395,5.111 -11.481,7.666 -18.258,7.666c-4.653,0 -9.475,-0.906 -14.466,-2.718c-4.993,-1.812 -9.195,-4.399 -12.604,-7.76c-3.411,-3.362 -5.117,-7.438 -5.117,-12.23l7.917,0c0,8.21 1.636,15.321 4.909,21.335c3.27,6.013 7.971,10.655 14.102,13.926c6.133,3.27 13.505,4.906 22.116,4.906c10.929,0 22.671,-3.729 35.228,-11.188c12.556,-7.457 25.296,-17.484 38.219,-30.081c12.923,-12.598 25.575,-26.747 37.956,-42.448c12.383,-15.701 24.008,-31.888 34.876,-48.561c10.868,-16.675 20.42,-32.804 28.656,-48.385c8.236,-15.584 14.704,-29.58 19.404,-41.989c4.703,-12.411 7.054,-22.089 7.054,-29.033c0,-5.681 -1.028,-11.283 -3.083,-16.803c-2.055,-5.521 -5.187,-10.09 -9.395,-13.708c-4.208,-3.618 -9.569,-5.426 -16.084,-5.426l0,-7.917c6.181,0 11.656,1.362 16.426,4.085c4.772,2.721 8.519,6.249 11.24,10.583c2.721,4.332 4.082,8.921 4.082,13.77c0,5.417 -1.441,10.284 -4.323,14.603c-2.882,4.319 -6.673,7.704 -11.374,10.156c-4.701,2.452 -9.829,3.678 -15.384,3.678c-9.583,0 -17.23,-2.844 -22.939,-8.532c-5.707,-5.688 -8.561,-12.427 -8.561,-20.218c0,-7.932 2.917,-14.671 8.75,-20.218c5.833,-5.549 13.194,-8.324 22.083,-8.324c9.223,0 16.543,2.323 21.96,6.969c5.417,4.646 9.304,10.358 11.663,17.135c2.361,6.777 3.542,13.326 3.542,19.645c0,7.778 -2.385,18.219 -7.155,31.325c-4.77,13.103 -11.402,27.725 -19.896,43.864c-8.494,16.137 -18.303,32.762 -29.427,49.873c-11.124,17.112 -23.11,33.702 -35.957,49.772c-12.847,16.07 -26.021,30.541 -39.521,43.415c-13.5,12.875 -26.876,23.087 -40.127,30.635c-13.249,7.55 -25.776,11.325 -37.581,11.325Zm104.73,-75.938c-5,-8.75 -10.025,-19.077 -15.075,-30.98c-5.048,-11.903 -9.939,-24.594 -14.674,-38.073c-4.735,-13.479 -9.273,-26.999 -13.613,-40.56c-4.34,-13.563 -8.358,-26.459 -12.054,-38.688c-3.694,-12.231 -6.989,-23.072 -9.886,-32.523c-2.895,-9.451 -5.315,-16.676 -7.259,-21.676c-0.833,-2.222 -2.139,-4.399 -3.916,-6.53c-1.777,-2.133 -4.778,-3.2 -9.001,-3.2c-5.471,0 -11.217,2.893 -17.24,8.678c-6.02,5.783 -11.662,15.842 -16.927,30.176l-7.917,-3.395c4.583,-12.5 9.833,-22.5 15.749,-30c5.918,-7.5 12.675,-12.917 20.27,-16.25c7.598,-3.333 16.119,-5 25.563,-5c14.306,0 24.792,3.51 31.458,10.531c6.667,7.02 11.556,16.01 14.668,26.969c2.873,9.347 6.008,20.399 9.404,33.158c3.396,12.756 7.222,26.089 11.478,40c4.258,13.908 9.026,27.39 14.303,40.446c5.278,13.056 11.236,24.583 17.874,34.583c-2.457,3.513 -4.96,6.989 -7.51,10.426c-2.548,3.438 -5.225,6.882 -8.031,10.332c-2.806,3.453 -5.661,6.977 -8.564,10.573c-2.901,3.598 -5.935,7.266 -9.102,11.003Z" style="fill-rule:nonzero;"/><path d="M2282.145,1051.075c-18.681,0 -32.303,-6.118 -40.866,-18.353c-8.561,-12.237 -12.842,-28.689 -12.842,-49.355c0,-15.972 3,-31.771 9.001,-47.396c6,-15.625 13.987,-29.826 23.958,-42.604c9.972,-12.778 21.023,-23.021 33.154,-30.729c12.133,-7.708 24.332,-11.562 36.595,-11.562c9.319,0 16.828,2.424 22.529,7.272c5.703,4.846 9.86,11.432 12.471,19.759c2.611,8.327 3.916,17.803 3.916,28.428c0,8.001 -0.914,17.117 -2.741,27.347c-1.825,10.228 -4.523,20.749 -8.092,31.562c-3.57,10.812 -7.89,21.311 -12.959,31.497c-5.069,10.187 -10.871,19.35 -17.406,27.49c-6.534,8.138 -13.701,14.614 -21.501,19.427c-7.797,4.811 -16.203,7.217 -25.218,7.217Zm13.314,-15.771c6.484,0 12.97,-2.76 19.456,-8.281c6.487,-5.521 12.632,-12.874 18.438,-22.061c5.807,-9.188 10.985,-19.449 15.534,-30.781c4.549,-11.335 8.114,-22.894 10.697,-34.678c2.582,-11.784 3.874,-22.941 3.874,-33.47c0,-8.138 -0.785,-15.207 -2.354,-21.208c-1.569,-6 -3.99,-10.633 -7.262,-13.896c-3.27,-3.264 -7.558,-4.896 -12.861,-4.896c-6.181,0 -12.452,3.024 -18.815,9.072c-6.361,6.048 -12.431,14.1 -18.21,24.157c-5.777,10.056 -10.954,21.102 -15.531,33.138c-4.575,12.033 -8.178,24.141 -10.811,36.322c-2.632,12.179 -3.949,23.372 -3.949,33.581c0,10.653 1.919,18.817 5.758,24.492c3.841,5.673 9.186,8.509 16.035,8.509Zm81.374,15.771c-11.597,0 -20.084,-2.816 -25.459,-8.447c-5.373,-5.632 -8.06,-13.155 -8.06,-22.572c0,-2.528 0.079,-4.761 0.238,-6.699c0.161,-1.938 0.38,-3.601 0.658,-4.99l6.227,-32.728l10.69,-32.793l5.915,-36.667l12.334,-50.938l47.708,0l-45.085,169.564c-0.556,2.083 -0.833,4.243 -0.833,6.478c0,1.986 0.565,3.712 1.696,5.179c1.133,1.465 2.977,2.197 5.534,2.197c4.985,0 9.98,-1.864 14.987,-5.592c5.009,-3.73 10.217,-9.89 15.625,-18.48c5.41,-8.592 11.164,-20.2 17.262,-34.824l7.979,2.708c-6.389,15.972 -12.896,29.01 -19.521,39.115c-6.623,10.104 -13.789,17.546 -21.497,22.324c-7.708,4.776 -16.507,7.165 -26.396,7.165Z" style="fill-rule:nonzero;"/><path d="M2473.125,1046.908l46.25,-183.542l-32.249,0l0,-8.125l77.874,0l-46.458,191.667l-45.417,0Zm55.247,-61.104c2.543,-11.25 5.738,-23.07 9.583,-35.459c3.848,-12.389 8.351,-24.438 13.509,-36.146c5.161,-11.708 10.942,-22.305 17.344,-31.79c6.404,-9.488 13.388,-17.048 20.951,-22.679c7.563,-5.632 15.642,-8.447 24.238,-8.447c9.722,0 17.552,2.74 23.49,8.219c5.938,5.477 8.906,12.585 8.906,21.322c0,8.138 -2.473,15.002 -7.419,20.592c-4.944,5.59 -11.464,8.385 -19.561,8.385c-7.595,0 -13.967,-2.357 -19.115,-7.07c-5.145,-4.716 -7.718,-10.824 -7.718,-18.324c0,-7.431 2.51,-13.58 7.529,-18.447c5.022,-4.868 11.568,-7.301 19.639,-7.301c7.582,0 13.849,1.906 18.799,5.719c4.952,3.811 7.428,9.293 7.428,16.445l-8.125,-0.062c0,-6.404 -2.115,-11.598 -6.344,-15.583c-4.227,-3.987 -10.05,-5.98 -17.467,-5.98c-7.832,0 -15.269,2.757 -22.311,8.271c-7.042,5.514 -13.567,12.866 -19.574,22.054c-6.007,9.186 -11.496,19.355 -16.468,30.508c-4.972,11.152 -9.367,22.437 -13.187,33.854c-3.819,11.417 -6.931,22.056 -9.336,31.917l-4.792,0Z" style="fill-rule:nonzero;"/><path d="M2777.874,1051.075c-11.513,0 -19.977,-2.816 -25.394,-8.447c-5.417,-5.632 -8.125,-13.155 -8.125,-22.572c0,-1.404 0.044,-3.168 0.133,-5.293c0.091,-2.125 0.345,-4.257 0.762,-6.396l6.227,-32.728l13.418,-34.251l0.814,-25.208l46.582,-173.646l-33.499,0l0,-8.125l81.559,0l-77.311,290.397c-0.556,2.222 -0.833,4.382 -0.833,6.478c0,1.888 0.541,3.589 1.624,5.104c1.083,1.515 2.951,2.272 5.605,2.272c5.028,0 10.035,-1.864 15.02,-5.592c4.987,-3.73 10.184,-9.89 15.592,-18.48c5.41,-8.592 11.164,-20.2 17.262,-34.824l7.979,2.708c-6.389,15.972 -12.861,29.01 -19.417,39.115c-6.554,10.104 -13.71,17.546 -21.468,22.324c-7.756,4.776 -16.599,7.165 -26.53,7.165Zm-94.479,0c-18.681,0 -32.337,-6.118 -40.97,-18.353c-8.631,-12.237 -12.946,-28.689 -12.946,-49.355c0,-15.972 3,-31.771 9.001,-47.396c6,-15.625 13.987,-29.826 23.958,-42.604c9.972,-12.778 21.023,-23.021 33.154,-30.729c12.133,-7.708 24.332,-11.562 36.595,-11.562c9.223,0 16.685,2.375 22.386,7.126c5.701,4.75 9.881,11.289 12.539,19.616c2.661,8.325 3.991,17.897 3.991,28.717c0,7.958 -0.914,17.031 -2.741,27.22c-1.825,10.187 -4.499,20.687 -8.021,31.501c-3.52,10.812 -7.815,21.322 -12.884,31.53c-5.069,10.208 -10.871,19.392 -17.406,27.552c-6.534,8.16 -13.69,14.656 -21.468,19.489c-7.778,4.833 -16.174,7.249 -25.189,7.249Zm13.105,-15.771c6.484,0 12.97,-2.76 19.456,-8.281c6.487,-5.521 12.632,-12.885 18.438,-22.093c5.807,-9.208 10.985,-19.478 15.534,-30.811c4.549,-11.335 8.114,-22.894 10.697,-34.678c2.582,-11.786 3.874,-22.943 3.874,-33.47c0,-8.138 -0.785,-15.196 -2.354,-21.175c-1.569,-5.981 -3.99,-10.603 -7.262,-13.867c-3.27,-3.264 -7.558,-4.896 -12.861,-4.896c-6.181,0 -12.427,3.049 -18.74,9.147c-6.313,6.096 -12.359,14.148 -18.138,24.157c-5.777,10.007 -10.954,21.051 -15.531,33.135c-4.577,12.083 -8.181,24.191 -10.814,36.322c-2.63,12.131 -3.945,23.301 -3.945,33.509c0,10.653 1.823,18.817 5.469,24.492c3.646,5.673 9.039,8.509 16.178,8.509Z" style="fill-rule:nonzero;"/></g></svg>