<svg width="100%" height="100%" viewBox="0 0 4611 743" version="1.1" xmlns="http://www.w3.org/2000/svg" xmlns:xlink="http://www.w3.org/1999/xlink" xml:space="preserve" xmlns:serif="http://www.serif.com/" style="fill-rule:evenodd;clip-rule:evenodd;stroke-linejoin:round;stroke-miterlimit:2;"><g><path d="M0,637.083l0,-16.25l78.75,0l138.04,-592.5l-70.957,0l0,-16.25l248.333,0c69.635,0 120.098,9.931 151.387,29.792c31.293,19.861 46.94,51.875 46.94,96.042c0,23.138 -5.66,44.653 -16.979,64.544c-11.319,19.887 -26.806,37.609 -46.458,53.164c-19.648,15.556 -42.342,28.403 -68.079,38.542c-25.738,10.139 -53.023,17.125 -81.855,20.957c33.277,2.222 62.491,8.194 87.643,17.917c25.156,9.722 44.761,23.529 58.815,41.419c14.054,17.886 21.081,40.469 21.081,67.747c0,31.111 -7.361,58.778 -22.083,83.001c-14.722,24.223 -34.855,44.661 -60.397,61.315c-25.538,16.649 -54.724,29.238 -87.559,37.767c-32.834,8.529 -67.32,12.793 -103.457,12.793l-273.164,0Zm187.91,-16.25l85.254,0c22.114,0 42.398,-5.117 60.853,-15.352c18.459,-10.239 34.488,-24.475 48.086,-42.708c13.598,-18.238 24.147,-39.475 31.647,-63.711c7.5,-24.236 11.25,-50.451 11.25,-78.646c0,-24.722 -3.757,-44.028 -11.27,-57.917c-7.513,-13.889 -18.207,-23.681 -32.083,-29.375c-13.876,-5.694 -30.536,-8.542 -49.98,-8.542l-91.048,0l3.75,-16.667l87.174,0c15.833,0 32.352,-4.208 49.557,-12.624c17.209,-8.416 33.257,-20.714 48.145,-36.895c14.891,-16.181 26.984,-35.896 36.276,-59.147c9.293,-23.251 13.939,-49.807 13.939,-79.668c0,-18.529 -2.945,-34.59 -8.835,-48.184c-5.89,-13.598 -15.176,-24.175 -27.858,-31.732c-12.678,-7.556 -29.295,-11.335 -49.85,-11.335l-66.797,0l-138.21,592.5Z" style="fill-rule:nonzero;"/><path d="M643.164,637.083l367.5,-637.083l41.413,0l79.043,637.083l-117.37,0l-53.001,-519.837l-298.835,519.837l-18.75,0Zm-61.914,0l0,-16.25l183.333,0l0,16.25l-183.333,0Zm336.667,0l0,-16.25l271.953,0l0,16.25l-271.953,0Zm-146.003,-195.833l0,-16.25l275.71,0l0,16.25l-275.71,0Z" style="fill-rule:nonzero;"/><path d="M1684.329,645.417l-259.329,-633.333l130.827,0l178.711,443.672l101.296,-443.672l17.083,0l-144.167,633.333l-24.421,0Zm-483.079,-8.333l0,-16.25l192.207,0l0,16.25l-192.207,0Zm78.75,0l137.207,-608.75l-82.624,0l0,-16.25l102.793,0l-140.169,625l-17.207,0Zm455.833,-608.75l0,-16.25l198.75,0l0,16.25l-198.75,0Z" style="fill-rule:nonzero;"/><path d="M1940.417,456.25l450.41,-443.086l23.581,0l-449.909,443.086l-24.082,0Zm-145.833,180.833l0,-16.25l252.493,0l0,16.25l-252.493,0Zm303.333,0l0,-16.25l282.324,0l0,16.25l-282.324,0Zm-232.5,0l141.667,-625l109.16,0l-141.953,625l-108.874,0Zm323.75,0l-105.085,-317.461l87.624,-80.202l140.911,397.663l-123.451,0Zm-257.083,-608.75l0,-16.25l257.493,0l0,16.25l-257.493,0Zm350.827,0l0,-16.25l200,0l0,16.25l-200,0Z" style="fill-rule:nonzero;"/><path d="M2653.874,649.167c-32.5,0 -60.139,-5.124 -82.917,-15.371c-22.778,-10.252 -41.48,-24.273 -56.107,-42.064c-14.622,-17.791 -25.822,-38.06 -33.6,-60.807c-7.778,-22.752 -12.917,-46.628 -15.417,-71.628l16.25,0c2.14,22.274 6.521,43.752 13.145,64.434c6.623,20.681 16.33,39.128 29.121,55.339c12.795,16.207 29.288,29.06 49.479,38.561c20.195,9.497 44.933,14.245 74.212,14.245c28.611,0 54.36,-5.243 77.246,-15.729c22.891,-10.486 40.996,-25.221 54.316,-44.206c13.32,-18.989 19.98,-41.191 19.98,-66.608c0,-23.915 -4.625,-43.859 -13.874,-59.831c-9.249,-15.972 -21.528,-29.451 -36.836,-40.436c-15.304,-10.99 -32.068,-20.853 -50.293,-29.59c-18.22,-8.737 -36.443,-17.758 -54.668,-27.064c-18.22,-9.306 -34.985,-20.187 -50.293,-32.643c-15.304,-12.457 -27.58,-27.858 -36.829,-46.204c-9.249,-18.351 -13.874,-41.122 -13.874,-68.314c0,-32.639 6.686,-61.228 20.059,-85.768c13.377,-24.544 30.684,-45.122 51.921,-61.732c21.237,-16.61 44.034,-29.095 68.392,-37.454c24.362,-8.364 47.53,-12.546 69.505,-12.546c35.556,-0 65.755,7.5 90.599,22.5c24.848,15 44.23,36.111 58.145,63.333c13.919,27.222 22.129,59.028 24.629,95.417l-16.25,0c-2.582,-33.138 -9.82,-61.957 -21.712,-86.458c-11.888,-24.501 -28.574,-43.444 -50.059,-56.829c-21.484,-13.39 -48.088,-20.085 -79.811,-20.085c-20.668,0 -40.809,4.444 -60.423,13.333c-19.609,8.889 -35.727,21.306 -48.353,37.253c-12.622,15.942 -18.932,34.746 -18.932,56.413c0,20.751 4.694,38.023 14.082,51.816c9.388,13.789 21.756,25.579 37.103,35.371c15.347,9.792 32.292,18.958 50.833,27.5c18.542,8.542 37.033,17.819 55.475,27.832c18.446,10.013 35.343,22.146 50.69,36.4c15.347,14.249 27.715,31.923 37.103,53.021c9.392,21.094 14.089,47.211 14.089,78.353c0,29.167 -6.139,56.465 -18.418,81.895c-12.279,25.43 -29.251,47.756 -50.918,66.979c-21.667,19.223 -46.771,34.258 -75.312,45.104c-28.542,10.846 -59.034,16.27 -91.478,16.27Zm-230.54,-3.75l42.5,-186.12l16.25,0l4.499,51.12c4.444,14.28 9.091,27.378 13.939,39.297c4.848,11.914 10.341,23.149 16.478,33.704l-79.499,61.999l-14.167,0Zm486.582,-460.417l0.378,-41.003c-4.002,-14.722 -8.474,-28.596 -13.418,-41.621c-4.944,-13.03 -11.875,-26.975 -20.794,-41.836l76.419,-56.79l14.167,0l-40.501,181.25l-16.25,0Z" style="fill-rule:nonzero;"/></g><g><path d="M3184.761,265.417c-17.545,0 -30.848,-4.778 -39.909,-14.333c-9.061,-9.556 -13.591,-22.333 -13.591,-38.333c0,-14.189 2.567,-27.728 7.701,-40.617c5.134,-12.889 12.134,-24.333 21,-34.333c8.866,-10 19.027,-17.897 30.482,-23.69c11.457,-5.795 23.507,-8.693 36.151,-8.693c17.622,0 31.026,4.889 40.214,14.667c9.189,9.778 13.784,22.667 13.784,38.667c0,14.056 -2.525,27.486 -7.576,40.292c-5.049,12.806 -11.99,24.201 -20.823,34.185c-8.833,9.983 -19.028,17.844 -30.583,23.583c-11.556,5.738 -23.839,8.607 -36.849,8.607Zm-1.167,-6.5c5.177,0 10.299,-1.97 15.365,-5.909c5.068,-3.939 9.946,-9.303 14.635,-16.091c4.689,-6.788 9.034,-14.485 13.034,-23.091c4,-8.606 7.494,-17.6 10.482,-26.982c2.99,-9.384 5.318,-18.656 6.984,-27.818c1.667,-9.161 2.5,-17.603 2.5,-25.326c0,-6.722 -1.5,-12.014 -4.5,-15.875c-3,-3.861 -7.778,-5.792 -14.333,-5.792c-5.101,0 -10.204,1.97 -15.31,5.909c-5.106,3.938 -10.003,9.301 -14.693,16.091c-4.688,6.788 -9.031,14.485 -13.031,23.091c-4,8.606 -7.495,17.601 -10.484,26.984c-2.99,9.382 -5.318,18.626 -6.984,27.732c-1.667,9.106 -2.5,17.576 -2.5,25.409c0,6.611 1.528,11.875 4.583,15.792c3.057,3.917 7.808,5.875 14.253,5.875Z" style="fill-rule:nonzero;"/><path d="M3249.159,348.75c-8.965,0 -16.587,-1.558 -22.865,-4.674c-6.278,-3.116 -11.049,-7.116 -14.315,-12c-3.267,-4.884 -4.901,-9.986 -4.901,-15.307c0,-7.267 2.227,-12.984 6.682,-17.151c4.455,-4.167 9.671,-6.25 15.648,-6.25c6.267,0 11.556,1.911 15.867,5.732c4.311,3.823 6.466,9.079 6.466,15.768c0,4.434 -1.13,8.284 -3.391,11.549c-2.262,3.267 -5.118,5.798 -8.568,7.591c-3.45,1.795 -6.974,2.693 -10.573,2.693c-3.611,0 -7.089,-0.925 -10.432,-2.776c-3.345,-1.849 -6.076,-4.293 -8.193,-7.333c-2.116,-3.038 -3.174,-6.312 -3.174,-9.823l6.451,0c0,3.677 1.28,7.479 3.841,11.406c2.561,3.929 6.297,7.246 11.208,9.951c4.91,2.705 10.915,4.057 18.016,4.057c6.622,0 12.174,-1.884 16.659,-5.651c4.483,-3.766 8.26,-9.06 11.331,-15.883c3.073,-6.821 5.829,-14.824 8.268,-24.008c2.439,-9.182 4.925,-19.19 7.458,-30.023l40.25,-175.034c2.634,-11.5 6.148,-22.25 10.542,-32.25c4.394,-10 9.747,-18.778 16.057,-26.333c6.312,-7.556 13.677,-13.486 22.094,-17.792c8.417,-4.306 17.98,-6.458 28.69,-6.458c9.078,0 16.717,1.558 22.917,4.674c6.2,3.116 10.924,7.109 14.174,11.977c3.25,4.866 4.875,9.977 4.875,15.331c0,6.979 -2.117,12.624 -6.352,16.935c-4.233,4.311 -9.521,6.466 -15.865,6.466c-5.922,0 -11.144,-1.903 -15.667,-5.708c-4.523,-3.806 -6.784,-9.069 -6.784,-15.792c0,-4.344 1.083,-8.141 3.25,-11.391c2.167,-3.25 4.991,-5.803 8.474,-7.659c3.484,-1.856 7.176,-2.784 11.076,-2.784c2.411,0 4.865,0.514 7.359,1.542c2.495,1.028 4.828,2.472 7,4.333c2.172,1.861 3.911,3.992 5.216,6.393c1.306,2.399 1.958,4.954 1.958,7.664l-6.333,0c0,-3.788 -1.261,-7.637 -3.784,-11.547c-2.523,-3.911 -6.192,-7.201 -11.008,-9.867c-4.816,-2.667 -10.752,-4 -17.807,-4c-6.467,0 -11.898,1.903 -16.292,5.708c-4.394,3.804 -8.111,9.136 -11.151,15.997c-3.038,6.861 -5.772,14.903 -8.201,24.125c-2.427,9.222 -4.907,19.25 -7.44,30.083l-40.951,174.685c-2.679,11.389 -6.204,22.091 -10.576,32.107c-4.372,10.017 -9.7,18.823 -15.984,26.417c-6.283,7.595 -13.666,13.546 -22.148,17.852c-8.483,4.306 -18.174,6.458 -29.076,6.458Zm45.435,-233.5l0,-6.5l113.581,0l0,6.5l-113.581,0Z" style="fill-rule:nonzero;"/><path d="M3497.11,265.417c-7.889,0 -14.217,-1.141 -18.984,-3.424c-4.766,-2.283 -8.227,-5.249 -10.383,-8.898c-2.155,-3.651 -3.232,-7.449 -3.232,-11.393c0,-2.278 0.369,-5.144 1.107,-8.599c0.74,-3.457 1.537,-6.852 2.393,-10.185l39.518,-147.5l36.664,0l-45.25,166c-0.333,1.144 -0.667,2.458 -1,3.943c-0.333,1.483 -0.5,3.002 -0.5,4.557c0,3.911 2.811,5.867 8.432,5.867c3.668,0 7.461,-0.952 11.378,-2.857c3.917,-1.906 7.813,-4.859 11.69,-8.859c3.878,-4 7.751,-9.169 11.617,-15.508c3.866,-6.34 7.616,-13.944 11.25,-22.81l6.383,2c-5.111,12.556 -10.583,23.122 -16.417,31.701c-5.833,8.578 -12.384,15.05 -19.651,19.417c-7.266,4.366 -15.604,6.549 -25.016,6.549Zm-31.581,-150l0,-6.667l99.997,0l0,6.667l-99.997,0Z" style="fill-rule:nonzero;"/><path d="M3549.927,262.083l65.167,-243.5l-25.5,0l0,-6.5l64.5,0l-66.667,250l-37.5,0Zm124.633,3.333c-8.944,0 -15.923,-2.139 -20.935,-6.417c-5.01,-4.278 -7.516,-9.95 -7.516,-17.016c0,-2.012 0.275,-4.332 0.826,-6.958c0.55,-2.628 1.214,-5.332 1.992,-8.109l19.799,-68.5c2.601,-9.056 4.339,-16.553 5.216,-22.492c0.878,-5.939 0.628,-10.395 -0.75,-13.367c-1.377,-2.972 -4.232,-4.458 -8.565,-4.458c-4.368,0 -9.543,2.659 -15.526,7.977c-5.983,5.316 -12.13,12.591 -18.443,21.826c-6.311,9.233 -12.244,19.835 -17.799,31.807c-5.556,11.972 -10.144,24.653 -13.766,38.042l-3.885,0c2.434,-9.566 5.648,-19.549 9.643,-29.948c3.995,-10.401 8.661,-20.474 14,-30.219c5.339,-9.745 11.138,-18.528 17.398,-26.349c6.262,-7.823 12.898,-14.054 19.909,-18.693c7.012,-4.639 14.213,-6.958 21.602,-6.958c9.5,0 16.816,2.239 21.948,6.716c5.134,4.477 8.275,10.486 9.424,18.026c1.151,7.538 0.36,15.957 -2.372,25.258l-24.951,86.951c-0.222,0.778 -0.434,1.745 -0.635,2.901c-0.2,1.155 -0.299,2.176 -0.299,3.065c0,4.111 1.851,6.167 5.552,6.167c6.477,0 12.802,-3.667 18.974,-11c6.172,-7.333 12.575,-19.1 19.208,-35.299l6.333,2.167c-5.177,13.144 -10.499,23.75 -15.966,31.818c-5.467,8.066 -11.457,13.927 -17.969,17.583c-6.51,3.655 -13.993,5.482 -22.448,5.482Z" style="fill-rule:nonzero;"/><path d="M3781.894,265.417c-11.5,0 -21.134,-2.317 -28.901,-6.951c-7.766,-4.634 -13.621,-10.967 -17.565,-19c-3.944,-8.033 -5.917,-17.161 -5.917,-27.383c0,-13.311 2.466,-26.313 7.398,-39.008c4.934,-12.694 11.815,-24.133 20.643,-34.315c8.828,-10.184 19.128,-18.287 30.898,-24.31c11.773,-6.023 24.459,-9.034 38.06,-9.034c14.266,0 25.345,3.256 33.24,9.768c7.894,6.51 11.841,14.521 11.841,24.031c0,8.51 -2.761,16.191 -8.284,23.042c-5.521,6.851 -13.176,12.734 -22.966,17.651c-9.788,4.917 -21.082,8.856 -33.883,11.818c-12.8,2.96 -26.534,4.885 -41.201,5.773l0,-5.367c8.479,-0.566 16.502,-2.19 24.068,-4.872c7.568,-2.684 14.421,-6.148 20.56,-10.393c6.139,-4.245 11.441,-9.053 15.906,-14.424c4.467,-5.372 7.906,-11.052 10.318,-17.042c2.411,-5.99 3.617,-12.04 3.617,-18.151c0,-4.122 -0.919,-7.705 -2.758,-10.75c-1.839,-3.045 -4.986,-4.568 -9.443,-4.568c-5.5,0 -10.861,1.962 -16.083,5.885c-5.222,3.922 -10.181,9.225 -14.875,15.909c-4.694,6.682 -9,14.188 -12.917,22.516c-3.917,8.326 -7.309,16.987 -10.177,25.982c-2.866,8.995 -5.082,17.776 -6.648,26.344c-1.566,8.566 -2.349,16.338 -2.349,23.315c0,9.311 2.191,15.803 6.573,19.477c4.384,3.672 9.965,5.508 16.745,5.508c8.089,0 15.877,-1.744 23.365,-5.232c7.49,-3.49 14.509,-8.354 21.057,-14.594c6.55,-6.24 12.404,-13.459 17.56,-21.659l5.784,3.651c-4.833,8.078 -10.747,15.642 -17.742,22.693c-6.995,7.049 -15.12,12.76 -24.375,17.133c-9.255,4.372 -19.772,6.557 -31.549,6.557Z" style="fill-rule:nonzero;"/><path d="M3106.177,637.083l0,-6.5l31.5,0l55.216,-237l-28.383,0l0,-6.5l99.333,0c27.854,0 48.039,3.972 60.555,11.917c12.517,7.944 18.776,20.75 18.776,38.417c0,9.255 -2.264,17.861 -6.792,25.818c-4.528,7.955 -10.722,15.043 -18.583,21.266c-7.859,6.222 -16.937,11.361 -27.232,15.417c-10.295,4.056 -21.209,6.85 -32.742,8.383c13.311,0.889 24.997,3.278 35.057,7.167c10.062,3.889 17.905,9.411 23.526,16.568c5.622,7.155 8.432,16.188 8.432,27.099c0,12.444 -2.944,23.511 -8.833,33.201c-5.889,9.689 -13.942,17.865 -24.159,24.526c-10.215,6.66 -21.89,11.695 -35.023,15.107c-13.134,3.411 -26.928,5.117 -41.383,5.117l-109.266,0Zm75.164,-6.5l34.102,0c8.845,0 16.959,-2.047 24.341,-6.141c7.384,-4.095 13.795,-9.79 19.234,-17.083c5.439,-7.295 9.659,-15.79 12.659,-25.484c3,-9.694 4.5,-20.181 4.5,-31.458c0,-9.889 -1.503,-17.611 -4.508,-23.167c-3.005,-5.556 -7.283,-9.472 -12.833,-11.75c-5.55,-2.278 -12.214,-3.417 -19.992,-3.417l-36.419,0l1.5,-6.667l34.87,0c6.333,0 12.941,-1.683 19.823,-5.049c6.884,-3.366 13.303,-8.286 19.258,-14.758c5.957,-6.472 10.793,-14.359 14.51,-23.659c3.717,-9.3 5.576,-19.923 5.576,-31.867c0,-7.411 -1.178,-13.836 -3.534,-19.273c-2.356,-5.439 -6.07,-9.67 -11.143,-12.693c-5.071,-3.023 -11.718,-4.534 -19.94,-4.534l-26.719,0l-55.284,237Z" style="fill-rule:nonzero;"/><path d="M3387.261,640.417c-17.545,0 -30.848,-4.778 -39.909,-14.333c-9.061,-9.556 -13.591,-22.333 -13.591,-38.333c0,-14.189 2.567,-27.728 7.701,-40.617c5.134,-12.889 12.134,-24.333 21,-34.333c8.866,-10 19.027,-17.897 30.482,-23.69c11.457,-5.795 23.507,-8.693 36.151,-8.693c17.622,0 31.026,4.889 40.214,14.667c9.189,9.778 13.784,22.667 13.784,38.667c0,14.056 -2.525,27.486 -7.576,40.292c-5.049,12.806 -11.99,24.201 -20.823,34.185c-8.833,9.983 -19.028,17.844 -30.583,23.583c-11.556,5.738 -23.839,8.607 -36.849,8.607Zm-1.167,-6.5c5.177,0 10.299,-1.97 15.365,-5.909c5.068,-3.939 9.946,-9.303 14.635,-16.091c4.689,-6.788 9.034,-14.485 13.034,-23.091c4,-8.606 7.494,-17.6 10.482,-26.982c2.99,-9.384 5.318,-18.656 6.984,-27.818c1.667,-9.161 2.5,-17.603 2.5,-25.326c0,-6.722 -1.5,-12.014 -4.5,-15.875c-3,-3.861 -7.778,-5.792 -14.333,-5.792c-5.101,0 -10.204,1.97 -15.31,5.909c-5.106,3.938 -10.003,9.301 -14.693,16.091c-4.688,6.788 -9.031,14.485 -13.031,23.091c-4,8.606 -7.495,17.601 -10.484,26.984c-2.99,9.382 -5.318,18.626 -6.984,27.732c-1.667,9.106 -2.5,17.576 -2.5,25.409c0,6.611 1.528,11.875 4.583,15.792c3.057,3.917 7.808,5.875 14.253,5.875Z" style="fill-rule:nonzero;"/><path d="M3604.727,640.417c-9.566,0 -16.7,-2.042 -21.401,-6.125c-4.7,-4.083 -7.049,-9.931 -7.049,-17.542c0,-2.321 0.275,-4.815 0.826,-7.482c0.55,-2.667 1.098,-4.923 1.643,-6.768l21.201,-69.083c2.677,-8.589 4.435,-15.891 5.273,-21.906c0.839,-6.017 0.51,-10.59 -0.984,-13.719c-1.493,-3.128 -4.445,-4.693 -8.857,-4.693c-4.29,0 -9.407,2.698 -15.352,8.094c-5.944,5.394 -12.053,12.766 -18.326,22.117c-6.273,9.349 -12.168,19.99 -17.685,31.924c-5.516,11.932 -10.045,24.438 -13.589,37.516l-4.518,0c2.512,-9.49 5.793,-19.415 9.841,-29.776c4.05,-10.361 8.736,-20.413 14.057,-30.156c5.323,-9.745 11.115,-18.567 17.375,-26.466c6.262,-7.901 12.868,-14.171 19.818,-18.81c6.951,-4.639 14.082,-6.958 21.393,-6.958c9.5,0 16.894,2.239 22.182,6.716c5.29,4.477 8.568,10.505 9.833,18.083c1.267,7.578 0.496,15.978 -2.315,25.201l-26,86.951c-0.3,0.934 -0.551,1.979 -0.753,3.135c-0.2,1.155 -0.299,2.176 -0.299,3.065c0,1.811 0.414,3.253 1.242,4.326c0.828,1.071 2.226,1.607 4.193,1.607c6.71,0 13.112,-3.667 19.206,-11c6.095,-7.333 12.499,-19.1 19.211,-35.299l6.216,2.167c-5.177,13.144 -10.499,23.75 -15.966,31.818c-5.467,8.066 -11.457,13.927 -17.969,17.583c-6.51,3.655 -13.993,5.482 -22.448,5.482Zm-123.148,-3.333l38.75,-146.833l-22.167,0l0,-6.5l61.164,0l-40.549,153.333l-37.198,0Z" style="fill-rule:nonzero;"/><path d="M3725.727,640.417c-11.5,0 -21.134,-2.317 -28.901,-6.951c-7.766,-4.634 -13.621,-10.967 -17.565,-19c-3.944,-8.033 -5.917,-17.161 -5.917,-27.383c0,-13.311 2.466,-26.313 7.398,-39.008c4.934,-12.694 11.815,-24.133 20.643,-34.315c8.828,-10.184 19.128,-18.287 30.898,-24.31c11.773,-6.023 24.459,-9.034 38.06,-9.034c14.266,0 25.345,3.256 33.24,9.768c7.894,6.51 11.841,14.521 11.841,24.031c0,8.51 -2.761,16.191 -8.284,23.042c-5.521,6.851 -13.176,12.734 -22.966,17.651c-9.788,4.917 -21.082,8.856 -33.883,11.818c-12.8,2.96 -26.534,4.885 -41.201,5.773l0,-5.367c8.479,-0.566 16.502,-2.19 24.068,-4.872c7.568,-2.684 14.421,-6.148 20.56,-10.393c6.139,-4.245 11.441,-9.053 15.906,-14.424c4.467,-5.372 7.906,-11.052 10.318,-17.042c2.411,-5.99 3.617,-12.04 3.617,-18.151c0,-4.122 -0.919,-7.705 -2.758,-10.75c-1.839,-3.045 -4.986,-4.568 -9.443,-4.568c-5.5,0 -10.861,1.962 -16.083,5.885c-5.222,3.922 -10.181,9.225 -14.875,15.909c-4.694,6.682 -9,14.188 -12.917,22.516c-3.917,8.326 -7.309,16.987 -10.177,25.982c-2.866,8.995 -5.082,17.776 -6.648,26.344c-1.566,8.566 -2.349,16.338 -2.349,23.315c0,9.311 2.191,15.803 6.573,19.477c4.384,3.672 9.965,5.508 16.745,5.508c8.089,0 15.877,-1.744 23.365,-5.232c7.49,-3.49 14.509,-8.354 21.057,-14.594c6.55,-6.24 12.404,-13.459 17.56,-21.659l5.784,3.651c-4.833,8.078 -10.747,15.642 -17.742,22.693c-6.995,7.049 -15.12,12.76 -24.375,17.133c-9.255,4.372 -19.772,6.557 -31.549,6.557Z" style="fill-rule:nonzero;"/><path d="M3835.742,723.75c-8.111,0 -15.148,-1.645 -21.109,-4.935c-5.96,-3.288 -10.57,-7.821 -13.831,-13.599c-3.262,-5.778 -4.893,-12.444 -4.893,-20c0,-4.5 1.025,-8.736 3.076,-12.708c2.05,-3.972 4.911,-7.181 8.583,-9.625c3.672,-2.443 7.952,-3.664 12.841,-3.664c3.444,0 6.919,0.786 10.424,2.357c3.505,1.573 6.422,3.964 8.75,7.174c2.328,3.212 3.492,7.312 3.492,12.299c0,6.712 -2.159,12.112 -6.477,16.201c-4.316,4.089 -9.185,6.133 -14.607,6.133c-3.722,0 -7.58,-0.725 -11.573,-2.174c-3.995,-1.45 -7.356,-3.519 -10.083,-6.208c-2.729,-2.689 -4.094,-5.951 -4.094,-9.784l6.333,0c0,6.568 1.309,12.257 3.927,17.068c2.616,4.811 6.377,8.524 11.281,11.141c4.906,2.616 10.804,3.924 17.693,3.924c8.743,0 18.137,-2.984 28.182,-8.951c10.045,-5.965 20.237,-13.987 30.576,-24.065c10.339,-10.078 20.46,-21.398 30.365,-33.958c9.906,-12.561 19.207,-25.51 27.901,-38.849c8.694,-13.34 16.336,-26.243 22.924,-38.708c6.589,-12.467 11.763,-23.664 15.523,-33.591c3.762,-9.929 5.643,-17.671 5.643,-23.227c0,-4.545 -0.822,-9.026 -2.466,-13.443c-1.644,-4.417 -4.149,-8.072 -7.516,-10.966c-3.366,-2.894 -7.655,-4.341 -12.867,-4.341l0,-6.333c4.944,0 9.325,1.089 13.141,3.268c3.818,2.177 6.815,4.999 8.992,8.466c2.177,3.465 3.266,7.137 3.266,11.016c0,4.333 -1.153,8.227 -3.458,11.682c-2.306,3.455 -5.339,6.163 -9.099,8.125c-3.76,1.962 -7.863,2.943 -12.307,2.943c-7.667,0 -13.784,-2.275 -18.352,-6.826c-4.566,-4.55 -6.849,-9.942 -6.849,-16.174c0,-6.345 2.333,-11.737 7,-16.174c4.667,-4.439 10.556,-6.659 17.667,-6.659c7.378,0 13.234,1.859 17.568,5.576c4.333,3.717 7.444,8.286 9.331,13.708c1.889,5.422 2.833,10.661 2.833,15.716c0,6.222 -1.908,14.576 -5.724,25.06c-3.816,10.483 -9.122,22.18 -15.917,35.091c-6.795,12.91 -14.642,26.209 -23.542,39.898c-8.899,13.689 -18.488,26.962 -28.766,39.818c-10.278,12.856 -20.817,24.433 -31.617,34.732c-10.8,10.3 -21.501,18.47 -32.102,24.508c-10.599,6.04 -20.621,9.06 -30.065,9.06Zm83.784,-60.75c-4,-7 -8.02,-15.261 -12.06,-24.784c-4.038,-9.523 -7.951,-19.675 -11.74,-30.458c-3.788,-10.783 -7.418,-21.599 -10.891,-32.448c-3.472,-10.851 -6.687,-21.168 -9.643,-30.951c-2.955,-9.785 -5.591,-18.457 -7.909,-26.018c-2.316,-7.561 -4.252,-13.341 -5.807,-17.341c-0.667,-1.778 -1.711,-3.519 -3.133,-5.224c-1.422,-1.707 -3.822,-2.56 -7.201,-2.56c-4.377,0 -8.974,2.314 -13.792,6.943c-4.816,4.627 -9.33,12.674 -13.542,24.141l-6.333,-2.716c3.667,-10 7.866,-18 12.599,-24c4.734,-6 10.14,-10.333 16.216,-13c6.078,-2.667 12.895,-4 20.451,-4c11.444,0 19.833,2.808 25.167,8.424c5.333,5.616 9.245,12.808 11.734,21.576c2.299,7.477 4.806,16.319 7.523,26.526c2.717,10.205 5.778,20.872 9.182,32c3.406,11.127 7.22,21.912 11.443,32.357c4.222,10.444 8.989,19.667 14.299,27.667c-1.965,2.811 -3.968,5.591 -6.008,8.341c-2.038,2.75 -4.18,5.505 -6.424,8.266c-2.245,2.762 -4.529,5.582 -6.852,8.458c-2.321,2.878 -4.748,5.812 -7.281,8.802Z" style="fill-rule:nonzero;"/><path d="M4050.81,640.417c-14.944,0 -25.842,-4.894 -32.693,-14.682c-6.849,-9.79 -10.273,-22.951 -10.273,-39.484c0,-12.778 2.4,-25.417 7.201,-37.917c4.8,-12.5 11.189,-23.861 19.167,-34.083c7.977,-10.222 16.819,-18.417 26.523,-24.583c9.707,-6.167 19.465,-9.25 29.276,-9.25c7.455,0 13.463,1.939 18.023,5.818c4.562,3.877 7.888,9.146 9.977,15.807c2.089,6.661 3.133,14.242 3.133,22.742c0,6.401 -0.731,13.694 -2.193,21.878c-1.46,8.182 -3.618,16.599 -6.474,25.25c-2.856,8.649 -6.312,17.049 -10.367,25.198c-4.056,8.149 -8.697,15.48 -13.924,21.992c-5.227,6.51 -10.961,11.691 -17.201,15.542c-6.238,3.849 -12.963,5.773 -20.174,5.773Zm10.651,-12.617c5.188,0 10.376,-2.208 15.565,-6.625c5.189,-4.417 10.106,-10.299 14.75,-17.648c4.646,-7.351 8.788,-15.559 12.427,-24.625c3.639,-9.068 6.491,-18.315 8.557,-27.742c2.066,-9.427 3.099,-18.352 3.099,-26.776c0,-6.51 -0.628,-12.166 -1.883,-16.966c-1.255,-4.8 -3.192,-8.506 -5.81,-11.117c-2.616,-2.611 -6.046,-3.917 -10.289,-3.917c-4.944,0 -9.962,2.419 -15.052,7.258c-5.089,4.839 -9.944,11.28 -14.568,19.326c-4.622,8.045 -8.763,16.882 -12.424,26.51c-3.66,9.627 -6.543,19.313 -8.648,29.057c-2.106,9.743 -3.159,18.698 -3.159,26.865c0,8.523 1.536,15.054 4.607,19.594c3.073,4.538 7.349,6.807 12.828,6.807Zm65.099,12.617c-9.278,0 -16.067,-2.253 -20.367,-6.758c-4.299,-4.505 -6.448,-10.524 -6.448,-18.057c0,-2.023 0.063,-3.809 0.19,-5.359c0.128,-1.55 0.304,-2.881 0.526,-3.992l4.982,-26.182l8.552,-26.234l4.732,-29.333l9.867,-40.75l38.167,0l-36.068,135.651c-0.444,1.667 -0.667,3.394 -0.667,5.182c0,1.589 0.452,2.97 1.357,4.143c0.906,1.172 2.382,1.758 4.427,1.758c3.988,0 7.984,-1.491 11.99,-4.474c4.007,-2.984 8.174,-7.912 12.5,-14.784c4.328,-6.873 8.931,-16.16 13.81,-27.859l6.383,2.167c-5.111,12.778 -10.317,23.208 -15.617,31.292c-5.299,8.083 -11.031,14.036 -17.198,17.859c-6.167,3.821 -13.206,5.732 -21.117,5.732Z" style="fill-rule:nonzero;"/><path d="M4203.594,637.083l37,-146.833l-25.799,0l0,-6.5l62.299,0l-37.167,153.333l-36.333,0Zm44.198,-48.883c2.035,-9 4.59,-18.456 7.667,-28.367c3.078,-9.911 6.681,-19.55 10.807,-28.917c4.128,-9.366 8.753,-17.844 13.875,-25.432c5.123,-7.59 10.71,-13.638 16.76,-18.143c6.05,-4.505 12.514,-6.758 19.391,-6.758c7.778,0 14.042,2.192 18.792,6.576c4.75,4.382 7.125,10.068 7.125,17.057c0,6.51 -1.978,12.002 -5.935,16.474c-3.955,4.472 -9.171,6.708 -15.648,6.708c-6.076,0 -11.174,-1.885 -15.292,-5.656c-4.116,-3.773 -6.174,-8.659 -6.174,-14.659c0,-5.944 2.008,-10.864 6.023,-14.758c4.017,-3.894 9.254,-5.841 15.711,-5.841c6.066,0 11.079,1.525 15.039,4.576c3.962,3.049 5.943,7.434 5.943,13.156l-6.5,-0.049c0,-5.123 -1.692,-9.279 -5.076,-12.466c-3.382,-3.189 -8.04,-4.784 -13.974,-4.784c-6.266,0 -12.215,2.206 -17.849,6.617c-5.634,4.411 -10.853,10.293 -15.659,17.643c-4.806,7.349 -9.197,15.484 -13.174,24.406c-3.977,8.922 -7.494,17.95 -10.549,27.083c-3.056,9.134 -5.545,17.645 -7.469,25.534l-3.833,0Z" style="fill-rule:nonzero;"/><path d="M4447.394,640.417c-9.21,0 -15.982,-2.253 -20.315,-6.758c-4.333,-4.505 -6.5,-10.524 -6.5,-18.057c0,-1.123 0.036,-2.535 0.107,-4.234c0.073,-1.7 0.276,-3.405 0.609,-5.117l4.982,-26.182l10.734,-27.401l0.651,-20.167l37.266,-138.917l-26.799,0l0,-6.5l65.247,0l-61.849,232.318c-0.444,1.778 -0.667,3.505 -0.667,5.182c0,1.51 0.433,2.872 1.299,4.083c0.866,1.212 2.361,1.818 4.484,1.818c4.023,0 8.028,-1.491 12.016,-4.474c3.99,-2.984 8.148,-7.912 12.474,-14.784c4.328,-6.873 8.931,-16.16 13.81,-27.859l6.383,2.167c-5.111,12.778 -10.289,23.208 -15.534,31.292c-5.243,8.083 -10.968,14.036 -17.174,17.859c-6.205,3.821 -13.28,5.732 -21.224,5.732Zm-75.583,0c-14.944,0 -25.87,-4.894 -32.776,-14.682c-6.905,-9.79 -10.357,-22.951 -10.357,-39.484c0,-12.778 2.4,-25.417 7.201,-37.917c4.8,-12.5 11.189,-23.861 19.167,-34.083c7.977,-10.222 16.819,-18.417 26.523,-24.583c9.707,-6.167 19.465,-9.25 29.276,-9.25c7.378,0 13.348,1.9 17.909,5.701c4.561,3.8 7.905,9.031 10.031,15.693c2.128,6.66 3.193,14.318 3.193,22.974c0,6.366 -0.731,13.625 -2.193,21.776c-1.46,8.149 -3.599,16.549 -6.417,25.201c-2.816,8.649 -6.252,17.057 -10.307,25.224c-4.056,8.167 -8.697,15.514 -13.924,22.042c-5.227,6.528 -10.952,11.725 -17.174,15.591c-6.222,3.866 -12.939,5.799 -20.151,5.799Zm10.484,-12.617c5.188,0 10.376,-2.208 15.565,-6.625c5.189,-4.417 10.106,-10.308 14.75,-17.674c4.646,-7.366 8.788,-15.582 12.427,-24.648c3.639,-9.068 6.491,-18.315 8.557,-27.742c2.066,-9.429 3.099,-18.354 3.099,-26.776c0,-6.51 -0.628,-12.157 -1.883,-16.94c-1.255,-4.785 -3.192,-8.483 -5.81,-11.094c-2.616,-2.611 -6.046,-3.917 -10.289,-3.917c-4.944,0 -9.942,2.439 -14.992,7.318c-5.05,4.877 -9.887,11.319 -14.51,19.326c-4.622,8.005 -8.763,16.841 -12.424,26.508c-3.661,9.667 -6.545,19.352 -8.651,29.057c-2.104,9.705 -3.156,18.641 -3.156,26.807c0,8.523 1.458,15.054 4.375,19.594c2.917,4.538 7.231,6.807 12.943,6.807Z" style="fill-rule:nonzero;"/></g></svg>